<svg width="36" height="36" viewBox="0 0 36 36" fill="none" xmlns="http://www.w3.org/2000/svg">
<path d="M12.8076 6C13.0304 6 13.244 6.0885 13.4016 6.24603C13.5591 6.40356 13.6476 6.61722 13.6476 6.84V8.4108H22.668V6.8508C22.668 6.62802 22.7565 6.41436 22.914 6.25683C23.0716 6.0993 23.2852 6.0108 23.508 6.0108C23.7308 6.0108 23.9444 6.0993 24.102 6.25683C24.2595 6.41436 24.348 6.62802 24.348 6.8508V8.4108H27.6C28.2363 8.4108 28.8466 8.66349 29.2966 9.11332C29.7467 9.56315 29.9997 10.1733 30 10.8096V27.6012C29.9997 28.2375 29.7467 28.8477 29.2966 29.2975C28.8466 29.7473 28.2363 30 27.6 30H8.4C7.76369 30 7.15342 29.7473 6.70337 29.2975C6.25332 28.8477 6.00032 28.2375 6 27.6012V10.8096C6.00032 10.1733 6.25332 9.56315 6.70337 9.11332C7.15342 8.66349 7.76369 8.4108 8.4 8.4108H11.9676V6.8388C11.9679 6.61623 12.0566 6.40288 12.2141 6.24561C12.3716 6.08833 12.585 6 12.8076 6ZM7.68 15.2904V27.6012C7.68 27.6958 7.69862 27.7894 7.73481 27.8767C7.77099 27.9641 7.82403 28.0435 7.89088 28.1103C7.95774 28.1772 8.03711 28.2302 8.12447 28.2664C8.21182 28.3026 8.30545 28.3212 8.4 28.3212H27.6C27.6946 28.3212 27.7882 28.3026 27.8755 28.2664C27.9629 28.2302 28.0423 28.1772 28.1091 28.1103C28.176 28.0435 28.229 27.9641 28.2652 27.8767C28.3014 27.7894 28.32 27.6958 28.32 27.6012V15.3072L7.68 15.2904ZM14.0004 23.5428V25.542H12V23.5428H14.0004ZM18.9996 23.5428V25.542H17.0004V23.5428H18.9996ZM24 23.5428V25.542H21.9996V23.5428H24ZM14.0004 18.7704V20.7696H12V18.7704H14.0004ZM18.9996 18.7704V20.7696H17.0004V18.7704H18.9996ZM24 18.7704V20.7696H21.9996V18.7704H24ZM11.9676 10.0896H8.4C8.30545 10.0896 8.21182 10.1082 8.12447 10.1444C8.03711 10.1806 7.95774 10.2336 7.89088 10.3005C7.82403 10.3673 7.77099 10.4467 7.73481 10.5341C7.69862 10.6214 7.68 10.715 7.68 10.8096V13.6116L28.32 13.6284V10.8096C28.32 10.715 28.3014 10.6214 28.2652 10.5341C28.229 10.4467 28.176 10.3673 28.1091 10.3005C28.0423 10.2336 27.9629 10.1806 27.8755 10.1444C27.7882 10.1082 27.6946 10.0896 27.6 10.0896H24.348V11.2044C24.348 11.4272 24.2595 11.6408 24.102 11.7984C23.9444 11.9559 23.7308 12.0444 23.508 12.0444C23.2852 12.0444 23.0716 11.9559 22.914 11.7984C22.7565 11.6408 22.668 11.4272 22.668 11.2044V10.0896H13.6476V11.1936C13.6476 11.4164 13.5591 11.63 13.4016 11.7876C13.244 11.9451 13.0304 12.0336 12.8076 12.0336C12.5848 12.0336 12.3712 11.9451 12.2136 11.7876C12.0561 11.63 11.9676 11.4164 11.9676 11.1936V10.0896Z" fill="#565656"/>
</svg>
