<svg width="36" height="36" viewBox="0 0 36 36" fill="none" xmlns="http://www.w3.org/2000/svg">
<path d="M6 19C10.8 8.33333 25.2 8.33333 30 19" stroke="#565656" stroke-width="2.25" stroke-linecap="round" stroke-linejoin="round"/>
<path d="M18 24.333C17.4747 24.333 16.9546 24.2295 16.4693 24.0285C15.984 23.8275 15.543 23.5329 15.1716 23.1614C14.8001 22.79 14.5055 22.349 14.3045 21.8637C14.1035 21.3784 14 20.8583 14 20.333C14 19.8077 14.1035 19.2876 14.3045 18.8023C14.5055 18.317 14.8001 17.876 15.1716 17.5046C15.543 17.1331 15.984 16.8385 16.4693 16.6375C16.9546 16.4365 17.4747 16.333 18 16.333C19.0609 16.333 20.0783 16.7544 20.8284 17.5046C21.5786 18.2547 22 19.2721 22 20.333C22 21.3939 21.5786 22.4113 20.8284 23.1614C20.0783 23.9116 19.0609 24.333 18 24.333Z" stroke="#565656" stroke-width="2.25" stroke-linecap="round" stroke-linejoin="round"/>
</svg>
